<svg width="19.993408" height="18.000000" viewBox="0 0 19.9934 18" fill="none" xmlns="http://www.w3.org/2000/svg" xmlns:xlink="http://www.w3.org/1999/xlink">
	<desc>
			Created with Pixso.
	</desc>
	<defs/>
	<path id="Vector" d="M19.89 5.89L18.84 1.52C18.62 0.61 17.84 0 16.93 0L3.04 0C2.14 0 1.35 0.63 1.14 1.52L0.09 5.89C-0.15 6.91 0.07 7.94 0.71 8.77C0.79 8.88 0.9 8.95 0.99 9.06L0.99 16C0.99 17.1 1.89 18 2.99 18L16.99 18C18.09 18 18.99 17.1 18.99 16L18.99 9.06C19.08 8.96 19.19 8.88 19.27 8.78C19.91 7.95 20.14 6.91 19.89 5.89ZM16.9 1.98L17.95 6.35C18.05 6.78 17.96 7.19 17.7 7.53C17.56 7.7 17.26 8 16.76 8C16.15 8 15.62 7.51 15.55 6.85L14.97 2L16.9 1.98ZM10.99 2L12.95 2L13.49 6.52C13.54 6.91 13.42 7.3 13.16 7.58C12.94 7.84 12.62 8 12.21 8C11.54 8 10.99 7.41 10.99 6.68L10.99 2ZM6.48 6.52L7.03 2L8.99 2L8.99 6.68C8.99 7.41 8.44 8 7.7 8C7.36 8 7.05 7.84 6.81 7.58C6.56 7.3 6.44 6.91 6.48 6.52ZM2.03 6.35L3.04 2L5.01 2L4.43 6.85C4.35 7.51 3.83 8 3.22 8C2.73 8 2.42 7.7 2.29 7.53C2.02 7.2 1.93 6.78 2.03 6.35ZM2.99 16L2.99 9.96C3.07 9.97 3.14 10 3.22 10C4.09 10 4.88 9.64 5.46 9.05C6.06 9.65 6.86 10 7.77 10C8.64 10 9.42 9.64 10 9.06C10.59 9.64 11.39 10 12.29 10C13.13 10 13.93 9.65 14.53 9.05C15.11 9.64 15.9 10 16.77 10C16.85 10 16.92 9.97 17 9.96L17 16L2.99 16Z" fill="#F2F2F2" fill-opacity="1.000000" fill-rule="nonzero"/>
</svg>
