<svg width="19.500000" height="19.500000" viewBox="0 0 19.5 19.5" fill="none" xmlns="http://www.w3.org/2000/svg" xmlns:xlink="http://www.w3.org/1999/xlink">
	<desc>
			Created with Pixso.
	</desc>
	<defs/>
	<path id="Vector" d="M18.75 2.25L0.75 2.25C0.33 2.25 0 2.58 0 3L0 15C0 15.41 0.32 15.75 0.74 15.75L18.75 15.75C19.16 15.75 19.5 15.41 19.5 15L19.5 3C19.5 2.58 19.16 2.25 18.75 2.25ZM17.25 13.5L2.25 13.5L2.25 4.5L17.25 4.5L17.25 13.5ZM1.5 19.5L4.17 19.5L5.22 16.5L2.58 16.5L1.5 19.5ZM10.84 0L8.65 0L8.11 1.5L11.38 1.5L10.84 0ZM15.32 19.5L18 19.5L16.92 16.5L14.27 16.5L15.32 19.5ZM8.62 16.5L10.87 16.5L10.87 18L8.62 18L8.62 16.5Z" fill="#F2F2F2" fill-opacity="1.000000" fill-rule="nonzero"/>
</svg>
