<svg width="84.844238" height="27.583008" viewBox="0 0 84.8442 27.583" fill="none" xmlns="http://www.w3.org/2000/svg" xmlns:xlink="http://www.w3.org/1999/xlink">
	<desc>
			Created with Pixso.
	</desc>
	<defs/>
	<path id="Foody." d="M80.33 16.68Q80.05 17.2 80.05 17.86Q80.05 18.73 80.45 19.32Q80.58 19.51 80.76 19.67Q81.1 19.98 81.5 20.15Q81.95 20.33 82.46 20.33Q82.99 20.33 83.43 20.14Q83.81 19.97 84.14 19.67Q84.3 19.52 84.43 19.33Q84.84 18.74 84.84 17.86Q84.84 17.19 84.55 16.66Q84.39 16.36 84.14 16.11Q83.78 15.76 83.36 15.59Q82.94 15.42 82.46 15.42Q81.99 15.42 81.58 15.58Q81.13 15.75 80.76 16.11Q80.49 16.37 80.33 16.68Z" fill="#EAAB00" fill-opacity="1.000000" fill-rule="evenodd"/>
	<path id="Foody." d="M60.31 1.9e-6L56.17 1.9e-6L56.17 7.19Q55.75 6.8 54.92 6.54Q54.09 6.27 53.17 6.27Q51.69 6.27 50.51 6.78Q49.64 7.15 48.97 7.75Q48.74 7.96 48.54 8.19Q47.74 9.1 47.31 10.4Q46.9 11.7 46.9 13.3Q46.9 14.92 47.35 16.22Q47.82 17.52 48.63 18.44Q49.02 18.87 49.48 19.22Q49.98 19.58 50.57 19.84Q50.65 19.88 50.74 19.91Q51.79 20.33 53 20.33Q54.57 20.33 55.53 19.75Q56.5 19.18 56.89 18.56L57.03 18.56L57.45 20.02L60.31 20.02L60.31 1.9e-6ZM11.48 5.63L11.48 2.38L9.15e-5 2.38L9.15e-5 20.02L4.25 20.02L4.25 13.15L10.86 13.15L10.86 9.93L4.25 9.93L4.25 5.63L11.48 5.63ZM26.97 16.18Q27.52 14.86 27.52 13.22Q27.52 11.51 26.99 10.22Q26.48 8.98 25.6 8.12Q25.57 8.08 25.53 8.05Q25.36 7.89 25.18 7.74Q24.38 7.09 23.33 6.72Q22.06 6.27 20.57 6.27Q19.09 6.27 17.8 6.76Q16.91 7.1 16.18 7.65Q15.86 7.89 15.56 8.18Q14.61 9.1 14.07 10.45Q13.52 11.79 13.52 13.5Q13.52 15.12 14.05 16.39Q14.57 17.63 15.45 18.48Q15.48 18.51 15.51 18.53Q15.6 18.62 15.7 18.7Q16.56 19.45 17.7 19.87Q18.98 20.33 20.47 20.33Q21.95 20.33 23.23 19.84Q24.22 19.47 25 18.84Q25.25 18.65 25.48 18.42Q25.56 18.34 25.64 18.26Q26.47 17.38 26.97 16.18ZM43.66 16.18Q44.21 14.86 44.21 13.22Q44.21 11.51 43.68 10.22Q43.17 8.98 42.29 8.12Q42.26 8.08 42.22 8.05Q42.05 7.89 41.87 7.74Q41.06 7.09 40.02 6.72Q38.75 6.27 37.26 6.27Q35.78 6.27 34.49 6.76Q33.6 7.1 32.87 7.65Q32.54 7.89 32.25 8.18Q31.3 9.1 30.76 10.45Q30.21 11.79 30.21 13.5Q30.21 15.12 30.74 16.39Q31.26 17.63 32.14 18.48Q32.17 18.51 32.2 18.53Q32.29 18.62 32.39 18.7Q33.25 19.45 34.39 19.87Q35.67 20.33 37.15 20.33Q38.64 20.33 39.92 19.84Q40.9 19.47 41.69 18.84Q41.94 18.65 42.16 18.42Q42.25 18.34 42.33 18.26Q43.16 17.38 43.66 16.18ZM67.56 6.58L63.03 6.58L68.74 19.94L68.68 20.15Q68.55 20.65 68.34 21.11Q67.94 21.96 67.24 22.68Q66.16 23.77 64.51 24.36L66.22 27.58Q67.76 27.07 68.85 26.29Q69.94 25.51 70.71 24.55Q71.22 23.92 71.63 23.23Q71.83 22.88 72.01 22.51Q72.15 22.21 72.29 21.92Q72.65 21.11 72.94 20.27L77.78 6.58L73.56 6.58L71.62 12.51L70.78 15.85L70.67 15.85L69.77 12.57L67.56 6.58ZM55.38 9.57Q55.91 9.88 56.17 10.21L56.17 15.98Q55.94 16.46 55.39 16.89Q55.32 16.94 55.24 16.99Q54.74 17.3 54.04 17.3Q53.34 17.3 52.78 17.03Q52.28 16.78 51.89 16.31Q51.07 15.31 51.07 13.22Q51.07 12.12 51.32 11.38Q51.57 10.64 52 10.17Q52.38 9.76 52.84 9.54Q52.92 9.51 53 9.48Q53.56 9.26 54.2 9.26Q54.63 9.26 55 9.4Q55.2 9.47 55.38 9.57ZM23.04 11.49Q23.27 12.26 23.27 13.35Q23.27 14.45 23.04 15.21Q22.82 15.96 22.43 16.42Q22.08 16.85 21.63 17.06Q21.6 17.08 21.57 17.09Q21.34 17.19 21.11 17.24Q20.84 17.3 20.55 17.3Q20.25 17.3 19.96 17.23Q19.23 17.04 18.62 16.35Q17.78 15.4 17.78 13.35Q17.78 12.18 18 11.41Q18.22 10.64 18.6 10.17Q18.98 9.69 19.47 9.49Q19.7 9.4 19.94 9.35Q20.21 9.29 20.49 9.29Q20.68 9.29 20.86 9.32Q21.2 9.37 21.53 9.52Q22.03 9.74 22.42 10.24Q22.82 10.72 23.04 11.49ZM39.73 11.49Q39.96 12.26 39.96 13.35Q39.96 14.45 39.73 15.21Q39.51 15.96 39.12 16.42Q38.77 16.85 38.32 17.06Q38.29 17.08 38.25 17.09Q38.03 17.19 37.8 17.24Q37.52 17.3 37.24 17.3Q36.93 17.3 36.65 17.23Q35.92 17.04 35.31 16.35Q34.47 15.4 34.47 13.35Q34.47 12.18 34.69 11.41Q34.91 10.64 35.29 10.17Q35.67 9.69 36.16 9.49Q36.39 9.4 36.62 9.35Q36.9 9.29 37.18 9.29Q37.37 9.29 37.55 9.32Q37.89 9.37 38.21 9.52Q38.72 9.74 39.11 10.24Q39.51 10.72 39.73 11.49Z" fill="#F5F5F5" fill-opacity="1.000000" fill-rule="evenodd"/>
</svg>
